<?xml version="1.0" encoding="utf-8"?>
<!-- Generator: Adobe Illustrator 24.0.0, SVG Export Plug-In . SVG Version: 6.00 Build 0)  -->
<svg version="1.1" id="Layer_1" xmlns="http://www.w3.org/2000/svg" xmlns:xlink="http://www.w3.org/1999/xlink" x="0px" y="0px"
	 viewBox="0 0 214 30.2" style="enable-background:new 0 0 214 30.2;" xml:space="preserve">
<style type="text/css">
	.st0{display:none;}
	.st1{fill:none;}
	.st2{fill:#FFFFFF;}
</style>
<rect x="-148.4" y="-77.9" class="st0" width="451.1" height="112.5"/>
<g>
	<path class="st1" d="M72.1,16.1c-0.5-0.3-1-0.4-1.6-0.4c-0.6,0-1.1,0.1-1.5,0.4c-0.4,0.2-0.8,0.6-1.1,1.1c-0.3,0.5-0.4,1.1-0.4,1.9
		c0,0.8,0.1,1.4,0.4,1.9c0.3,0.5,0.6,0.9,1,1.1c0.5,0.3,1,0.4,1.5,0.4c0.6,0,1.1-0.1,1.6-0.4c0.4-0.2,0.8-0.6,1-1.1
		c0.3-0.5,0.4-1.2,0.4-1.9c0-0.8-0.1-1.4-0.4-1.9C72.9,16.7,72.6,16.4,72.1,16.1z"/>
	<path class="st1" d="M98.4,3.1c-0.5-0.5-1.2-0.7-2.1-0.7c-0.9,0-1.5,0.2-2.1,0.7c-0.5,0.5-0.8,1-0.8,1.7c0,0.7,0.2,1.3,0.8,1.7
		c0.5,0.5,1.2,0.7,2.1,0.7s1.5-0.2,2.1-0.7c0.5-0.5,0.8-1.1,0.8-1.8C99.1,4,98.9,3.5,98.4,3.1z"/>
	<path class="st1" d="M32.7,16.1c-0.5-0.3-1-0.4-1.6-0.4c-0.6,0-1.1,0.1-1.5,0.4c-0.4,0.2-0.8,0.6-1.1,1.1c-0.3,0.5-0.4,1.1-0.4,1.9
		c0,0.8,0.2,1.4,0.4,1.9c0.3,0.5,0.6,0.9,1,1.1c0.5,0.3,1,0.4,1.5,0.4c0.6,0,1.1-0.1,1.6-0.4c0.4-0.2,0.8-0.6,1.1-1.1
		c0.3-0.5,0.4-1.2,0.4-1.9c0-0.8-0.1-1.4-0.4-1.9C33.5,16.7,33.1,16.4,32.7,16.1z"/>
	<path class="st1" d="M204.2,16.1c-0.5-0.3-1-0.4-1.6-0.4c-0.6,0-1.1,0.1-1.5,0.4c-0.4,0.2-0.8,0.6-1.1,1.1
		c-0.3,0.5-0.4,1.1-0.4,1.9c0,0.8,0.2,1.4,0.4,1.9c0.3,0.5,0.6,0.9,1.1,1.1c0.5,0.3,1,0.4,1.5,0.4c0.6,0,1.1-0.1,1.6-0.4
		c0.4-0.2,0.8-0.6,1.1-1.1c0.3-0.5,0.4-1.2,0.4-1.9c0-0.8-0.1-1.4-0.4-1.9C205,16.7,204.6,16.4,204.2,16.1z"/>
	<path d="M126.9,22.2c0.6,0.3,1.3,0.4,2.1,0.4c0.7,0,1.4-0.1,1.9-0.3c0.1,0,0.2-0.1,0.2-0.1L126.9,22.2
		C126.9,22.2,126.9,22.2,126.9,22.2z"/>
	<path d="M129.8,15.7c-0.4-0.3-0.9-0.4-1.6-0.4s-1.1,0.1-1.6,0.4c-0.1,0.1-0.2,0.1-0.3,0.2h3.7C130,15.9,129.9,15.8,129.8,15.7z"/>
	<path d="M133.8,9.5c-1.7-0.9-3.5-1.3-5.6-1.3c-2.1,0-4,0.5-5.8,1.4c-1.4,0.8-2.5,1.8-3.5,3c0,0,0,0,0-0.1c-0.8-1.5-2-2.6-3.4-3.3
		c-1.4-0.7-2.9-1-4.6-1s-3.3,0.4-4.6,1c-0.3-0.5-0.8-0.8-1.4-0.8h-5c-0.3,0-0.6,0.1-0.9,0.3c0,0,0,0,0,0h0c0.3-0.2,0.6-0.4,0.8-0.6
		c0.9-0.9,1.4-2,1.4-3.4c0-1.3-0.5-2.4-1.5-3.3c-0.9-0.8-2.1-1.2-3.4-1.2c-1.4,0-2.6,0.4-3.5,1.3c-0.9,0.9-1.4,2-1.4,3.3
		c0,1.3,0.5,2.4,1.4,3.3c0,0,0,0,0.1,0.1c-0.1,0-0.1,0-0.2,0c-1.8,0-3.5,0.4-4.9,1.1c-0.3-0.5-0.8-0.8-1.4-0.8H82V3.1
		c0-0.9-0.7-1.6-1.6-1.6h-5.3c-0.9,0-1.6,0.7-1.6,1.6v5.8c-1.2-0.5-2.5-0.7-3.8-0.7c-2,0-3.8,0.5-5.4,1.4c-1.3,0.7-2.4,1.7-3.3,3
		C60.2,11,59,9.9,57.6,9.2c-1.4-0.7-2.9-1-4.6-1c-1.7,0-3.3,0.4-4.7,1c-0.3-0.5-0.8-0.8-1.4-0.8h-5c-0.2,0-0.3,0-0.4,0.1
		c-0.2-0.1-0.4-0.1-0.6-0.1h-5.3c-0.5,0-1,0.2-1.3,0.7c-1.2-0.6-2.6-0.9-4.1-0.9c-2,0-3.8,0.5-5.4,1.4c-1.6,0.9-2.9,2.2-3.9,3.9
		c-0.3,0.6-0.6,1.3-0.8,2c-0.2-0.2-0.5-0.3-0.7-0.5c-0.9-0.5-1.9-1-3-1.4c-1-0.3-2.1-0.6-3.1-0.8c-1-0.2-1.9-0.4-2.6-0.6
		c-0.6-0.2-1.1-0.4-1.4-0.6c-0.1-0.1-0.1-0.1-0.1-0.2c0-0.1,0-0.3,0.1-0.4c0.1-0.1,0.2-0.2,0.7-0.4c0.3-0.1,0.9-0.3,2.1-0.3
		c0.9,0,1.8,0.1,2.8,0.4c1,0.3,2,0.7,2.9,1.2c0.4,0.2,0.9,0.3,1.3,0.1c0.4-0.1,0.8-0.5,1-0.9l1.7-4.1c0.3-0.7,0-1.6-0.6-2
		c-1.2-0.8-2.7-1.4-4.3-1.8c-1.6-0.4-3.2-0.6-4.8-0.6c-2.5,0-4.5,0.4-6.2,1.1c-1.8,0.8-3.1,1.9-4,3.3C1,8.3,0.5,9.9,0.5,11.5
		c0,1.5,0.3,2.8,1,3.9c0.6,1,1.5,1.9,2.5,2.5c0.9,0.6,2,1,3.1,1.4c1,0.3,2.1,0.6,3.1,0.8c0.9,0.2,1.8,0.4,2.6,0.7
		c0.6,0.2,1.1,0.4,1.5,0.6c0.1,0.1,0.1,0.1,0.1,0.2c0,0.1,0,0.2-0.1,0.3c-0.1,0.1-0.2,0.2-0.8,0.4c-0.3,0.1-1,0.3-2.1,0.3
		c-1.2,0-2.5-0.2-3.7-0.6c-1.2-0.4-2.3-0.9-3.2-1.5c-0.3-0.2-0.6-0.3-0.9-0.3c-0.1,0-0.3,0-0.4,0c-0.5,0.1-0.8,0.5-1,0.9l-1.9,4.1
		c-0.3,0.7-0.1,1.5,0.5,1.9c1.2,0.9,2.8,1.7,4.8,2.2c1.9,0.5,3.9,0.8,5.9,0.8c2.5,0,4.6-0.4,6.2-1.2c1.8-0.8,3.1-1.9,4-3.2
		c0,0,0,0,0,0c0.9,1.2,1.9,2.2,3.2,2.9c1.6,0.9,3.4,1.4,5.4,1.4c1.6,0,3.1-0.3,4.4-0.9c0.3,0.4,0.8,0.7,1.3,0.7h5
		c0.2,0,0.3,0,0.5-0.1c0.2,0.1,0.3,0.1,0.5,0.1h5.3c0.9,0,1.6-0.7,1.6-1.6v-9c0-0.9,0.1-1.6,0.4-2c0.2-0.4,0.5-0.7,0.9-0.9
		c0.4-0.2,0.9-0.3,1.5-0.3c0.9,0,1.3,0.3,1.5,0.5c0.3,0.4,0.5,1.1,0.5,2.2v9.6c0,0.9,0.7,1.6,1.6,1.6h5.3c0.9,0,1.6-0.7,1.6-1.6
		v-1.1c0.6,0.6,1.3,1.1,2.1,1.6c1.6,0.9,3.4,1.4,5.4,1.4c1.6,0,3.1-0.3,4.4-0.9c0.3,0.4,0.8,0.7,1.3,0.7h5c0.2,0,0.3,0,0.5-0.1
		c0.1,0.1,0.3,0.1,0.5,0.1h5.3c0.9,0,1.6-0.7,1.6-1.6v-8.6c0-1.3,0.3-2.2,0.8-2.7c0.6-0.6,1.4-0.8,2.4-0.8c0.1,0,0.2,0,0.4,0
		c0,0,0.1,0,0.1,0v12.3c0,0.9,0.7,1.6,1.6,1.6h5.3c0.3,0,0.7-0.1,0.9-0.3c0,0,0.1,0,0.1,0h5.3c0.9,0,1.6-0.7,1.6-1.6v-9
		c0-0.9,0.1-1.6,0.4-2c0.2-0.4,0.5-0.7,0.9-0.9c0.4-0.2,0.9-0.3,1.5-0.3c1,0,1.3,0.3,1.5,0.5c0.4,0.4,0.5,1.1,0.5,2.2v9.6
		c0,0.9,0.7,1.6,1.6,1.6h5.3c0.9,0,1.6-0.7,1.6-1.6v-1.3c0.7,0.7,1.6,1.3,2.5,1.8c1.8,0.9,3.9,1.4,6.2,1.4c1.8,0,3.5-0.3,5-0.9
		c1.5-0.6,2.8-1.5,3.8-2.6c0.6-0.6,0.5-1.5,0-2.2l-2.1-2.2h2.1c0.8,0,1.5-0.6,1.6-1.5c0-0.2,0-0.5,0.1-0.8c0-0.3,0-0.6,0-0.8
		c0-2.2-0.5-4.2-1.5-5.9C136.8,11.7,135.5,10.4,133.8,9.5z M33.7,21.1c-0.3,0.5-0.6,0.9-1.1,1.1c-0.5,0.3-1,0.4-1.6,0.4
		c-0.6,0-1.1-0.1-1.5-0.4c-0.4-0.2-0.8-0.6-1-1.1c-0.3-0.5-0.4-1.2-0.4-1.9c0-0.8,0.1-1.4,0.4-1.9c0.3-0.5,0.6-0.8,1.1-1.1
		c0.5-0.3,1-0.4,1.5-0.4c0.6,0,1.1,0.1,1.6,0.4c0.4,0.2,0.8,0.6,1.1,1.1c0.3,0.5,0.4,1.2,0.4,1.9C34.1,19.9,34,20.5,33.7,21.1z
		 M40.4,10v0.4h-0.1L40.4,10c-0.1-0.3,0-0.6,0.2-0.8h0.1C40.5,9.5,40.4,9.7,40.4,10z M42,9.3c-0.2,0-0.4,0.1-0.5,0.2c0,0,0,0,0,0
		c0,0,0,0,0,0C41.5,9.3,41.7,9.2,42,9.3l0.4-0.1c0,0,0,0,0,0c0,0,0,0,0,0H42z M73.2,21.1c-0.3,0.5-0.6,0.9-1,1.1
		c-0.5,0.3-1,0.4-1.6,0.4c-0.6,0-1.1-0.1-1.5-0.4c-0.4-0.2-0.8-0.6-1-1.1c-0.3-0.5-0.4-1.2-0.4-1.9c0-0.8,0.1-1.4,0.4-1.9
		c0.3-0.5,0.6-0.8,1.1-1.1c0.5-0.3,1-0.4,1.5-0.4c0.6,0,1.1,0.1,1.6,0.4c0.4,0.2,0.8,0.6,1.1,1.1c0.3,0.5,0.4,1.1,0.4,1.9
		C73.6,19.9,73.5,20.5,73.2,21.1z M98.4,6.5c-0.5,0.5-1.2,0.7-2.1,0.7S94.8,7,94.2,6.5c-0.5-0.5-0.8-1-0.8-1.7
		c0-0.7,0.2-1.3,0.8-1.7c0.5-0.5,1.2-0.7,2.1-0.7c0.9,0,1.5,0.2,2.1,0.7c0.5,0.4,0.8,1,0.8,1.7C99.1,5.5,98.9,6.1,98.4,6.5z
		 M126.7,15.7c0.4-0.2,1-0.4,1.6-0.4s1.1,0.1,1.6,0.4c0.1,0,0.2,0.1,0.3,0.2h-3.7C126.5,15.9,126.6,15.8,126.7,15.7z M131,22.3
		c-0.5,0.2-1.2,0.3-1.9,0.3c-0.8,0-1.6-0.1-2.1-0.4c0,0,0,0,0,0h4.3C131.1,22.3,131.1,22.3,131,22.3z"/>
	<path d="M40.3,10v0.4h0.1L40.3,10c0.1-0.3,0.1-0.6,0.3-0.8h-0.1C40.4,9.5,40.3,9.7,40.3,10z"/>
	<path d="M42,9.2c-0.2,0-0.4,0.1-0.5,0.2c0,0,0,0,0,0C41.6,9.4,41.8,9.3,42,9.2l0.4,0c0,0,0,0,0,0H42z"/>
	<path d="M42.4,9.2C42.4,9.2,42.4,9.2,42.4,9.2l-0.4,0c-0.2,0-0.4,0.1-0.5,0.2c0,0,0,0,0,0c0.1-0.1,0.3-0.2,0.5-0.2H42.4z"/>
	<path d="M212.4,1.5h-5.3c-0.9,0-1.6,0.7-1.6,1.6v5.8c-1.1-0.5-2.4-0.7-3.8-0.7c-2,0-3.8,0.5-5.4,1.4c-0.8,0.4-1.4,0.9-2,1.5v-1
		c0-0.9-0.7-1.6-1.5-1.6c0.3-0.2,0.6-0.4,0.8-0.6c0.9-0.9,1.4-2,1.4-3.3c0-1.3-0.5-2.4-1.5-3.3C192.5,0.4,191.4,0,190,0
		c-1.4,0-2.6,0.4-3.5,1.3c-0.9,0.9-1.4,2-1.4,3.3c0,1.3,0.5,2.4,1.4,3.3c0.2,0.2,0.5,0.4,0.8,0.6c-0.9,0-1.5,0.8-1.5,1.6v1
		c-0.7-0.8-1.4-1.4-2.3-1.8c-1.4-0.7-2.9-1-4.6-1c-1.7,0-3.3,0.4-4.7,1c-0.3-0.5-0.8-0.8-1.4-0.8h-5c-0.9,0-1.6,0.7-1.6,1.6v10.7
		l-7.5-16.8c-0.3-0.6-0.8-1-1.5-1h-5.4c-0.6,0-1.2,0.4-1.5,1l-10.5,23.7c-0.2,0.5-0.2,1.1,0.1,1.5c0.3,0.5,0.8,0.7,1.4,0.7h5.6
		c0.7,0,1.2-0.4,1.5-1l6.1-14.7l6.1,14.7c0.2,0.6,0.8,1,1.5,1h11c0.9,0,1.6-0.7,1.6-1.6v-9c0-0.9,0.1-1.6,0.4-2
		c0.2-0.4,0.5-0.7,0.9-0.9c0.4-0.2,0.9-0.3,1.5-0.3c0.9,0,1.3,0.3,1.5,0.5c0.3,0.4,0.5,1.1,0.5,2.2v9.6c0,0.9,0.7,1.6,1.6,1.6h5.3
		c0.2,0,0.3,0,0.5-0.1c0.2,0.1,0.3,0.1,0.5,0.1h5.3c0.9,0,1.6-0.7,1.6-1.6v-1c0.6,0.6,1.3,1.1,2,1.5c1.6,0.9,3.4,1.4,5.4,1.4
		c1.6,0,3.1-0.3,4.4-0.9c0.3,0.4,0.8,0.7,1.3,0.7h5c0.9,0,1.6-0.7,1.6-1.6V3.1C214,2.2,213.3,1.5,212.4,1.5z M168.3,27.7v-0.1V27.7
		L168.3,27.7z M205.2,21.1c-0.3,0.5-0.6,0.9-1.1,1.1c-0.5,0.3-1,0.4-1.6,0.4c-0.6,0-1.1-0.1-1.5-0.4c-0.4-0.2-0.8-0.6-1.1-1.1
		c-0.3-0.5-0.4-1.2-0.4-1.9c0-0.8,0.2-1.4,0.4-1.9c0.3-0.5,0.6-0.8,1.1-1.1c0.5-0.3,1-0.4,1.5-0.4c0.6,0,1.1,0.1,1.6,0.4
		c0.4,0.2,0.8,0.6,1.1,1.1c0.3,0.5,0.4,1.2,0.4,1.9C205.6,19.9,205.5,20.5,205.2,21.1z"/>
	<polygon points="168.3,27.7 168.3,27.7 168.3,27.6 	"/>
</g>
<path class="st2" d="M42.5,10.5h4v3l0.9-1c0.5-0.5,1.1-1,1.7-1.3c1.1-0.6,2.5-0.9,3.9-0.9c1.4,0,2.6,0.3,3.6,0.8
	c1,0.5,1.9,1.3,2.5,2.4c0.2,0.4,0.4,0.9,0.5,1.4c0-0.1,0.1-0.2,0.1-0.4c0-0.1,0.1-0.2,0.2-0.3c0.1-0.3,0.2-0.5,0.4-0.8
	c0,0,0,0,0-0.1c-0.1-0.2-0.1-0.3-0.2-0.4c-0.7-1.3-1.7-2.3-3-2.9C56,9.3,54.6,9,53,9c-1.7,0-3.2,0.4-4.5,1.1
	c-0.2,0.1-0.5,0.3-0.7,0.4l-0.1,0.1V10c0-0.4-0.3-0.7-0.7-0.7h-4.6c0.1,0.2,0.1,0.4,0.1,0.7V10.5z"/>
<path class="st2" d="M60.4,24.9c0,0-0.1-0.1-0.1-0.2c-0.1-0.2-0.2-0.3-0.2-0.5v3.5h-4.3v-9.1c0-1.6-0.4-2.8-1.1-3.6
	c-0.7-0.8-1.8-1.2-3.1-1.2c-0.9,0-1.8,0.2-2.5,0.6c-0.8,0.4-1.3,1-1.8,1.8c-0.4,0.8-0.6,1.8-0.6,3v8.5h-4.3V10.5h0.1V10
	c0-0.2,0-0.5-0.1-0.7H42c-0.2,0-0.4,0.1-0.5,0.2c-0.1,0.1-0.2,0.3-0.2,0.5v18.2c0,0.2,0.1,0.4,0.2,0.5c0.1,0.1,0.3,0.2,0.5,0.2h5.3
	c0.4,0,0.7-0.3,0.7-0.7v-9c0-1,0.2-1.8,0.5-2.4c0.3-0.6,0.7-1,1.3-1.3c0.5-0.3,1.2-0.5,1.9-0.5c1,0,1.7,0.3,2.2,0.8
	c0.5,0.6,0.8,1.5,0.8,2.8v9.6c0,0.4,0.3,0.7,0.7,0.7h5.3c0.4,0,0.7-0.3,0.7-0.7v-2c-0.3-0.3-0.5-0.7-0.7-1
	C60.5,25,60.4,25,60.4,24.9z"/>
<path class="st2" d="M81.1,3.1c0-0.4-0.3-0.7-0.7-0.7h-5.3c-0.4,0-0.7,0.3-0.7,0.7v7.2l-0.1,0c-0.1-0.1-0.2-0.1-0.2-0.2
	C72.8,9.4,71.3,9,69.7,9c-1.8,0-3.5,0.4-5,1.3c-0.4,0.2-0.8,0.5-1.1,0.8c-0.1,0.1-0.2,0.1-0.3,0.2c-0.2,0.1-0.3,0.3-0.5,0.4
	c-0.1,0.1-0.2,0.2-0.3,0.3c-0.4,0.4-0.8,0.9-1.1,1.4c0,0,0,0,0,0.1c0,0,0,0,0,0c-0.1,0.1-0.1,0.2-0.2,0.3c-0.1,0.2-0.2,0.3-0.2,0.5
	c0,0,0,0,0,0.1c0,0,0,0,0,0c0,0,0,0,0,0.1c-0.2,0.4-0.3,0.8-0.5,1.2c-0.1,0.2-0.1,0.4-0.2,0.6v0c-0.1,0.2-0.1,0.5-0.2,0.7
	c0,0,0,0.1,0,0.1v0c0,0,0,0,0,0c-0.1,0.7-0.2,1.3-0.2,2c0,0.8,0.1,1.5,0.2,2.2c0.1,0.4,0.2,0.7,0.2,1.1v0c0,0,0,0,0,0
	c0,0.1,0.1,0.2,0.1,0.4c0,0.1,0.1,0.3,0.1,0.4c0.2,0.4,0.4,0.9,0.6,1.3c0,0.1,0.1,0.2,0.1,0.2c0,0,0,0.1,0.1,0.1c0,0,0,0.1,0,0.1
	c0.1,0.1,0.1,0.2,0.2,0.3c0.2,0.2,0.3,0.4,0.5,0.6c0,0,0,0,0,0.1c0,0,0,0,0,0.1c0.2,0.2,0.3,0.3,0.5,0.5c0.2,0.2,0.4,0.4,0.5,0.5
	c0.1,0.1,0.2,0.2,0.3,0.3c0.4,0.3,0.8,0.5,1.2,0.8c1.5,0.8,3.2,1.3,5,1.3c1.7,0,3.2-0.4,4.5-1.1c0.1-0.1,0.3-0.2,0.4-0.2l0.1-0.1
	v0.4c0,0.4,0.3,0.7,0.7,0.7H80c-0.1-0.2-0.2-0.5-0.2-0.7v-0.5h-3.9v-3L75,25.8c-0.4,0.5-0.9,0.9-1.4,1.2c-1.1,0.6-2.4,0.9-3.9,0.9
	c-1.6,0-3.1-0.4-4.4-1.1c-1.3-0.7-2.3-1.8-3.1-3.1c0,0,0-0.1-0.1-0.1c0,0,0-0.1,0-0.1c0,0,0,0,0-0.1c-0.1-0.2-0.2-0.5-0.4-0.8
	c-0.1-0.2-0.1-0.4-0.2-0.5c-0.1-0.2-0.1-0.4-0.2-0.6c0-0.1,0-0.2,0-0.2c0-0.1,0-0.2-0.1-0.2c0,0,0-0.1,0-0.1c0-0.2,0-0.3-0.1-0.5
	c0-0.1,0-0.1,0-0.2c0-0.4-0.1-0.8-0.1-1.2c0-0.5,0-0.9,0.1-1.4c0-0.2,0-0.4,0.1-0.5v0c0-0.1,0-0.1,0-0.2c0,0,0,0,0,0
	c0-0.1,0-0.1,0-0.2c0-0.1,0-0.2,0.1-0.3c0-0.2,0.1-0.3,0.1-0.5c0-0.2,0.1-0.4,0.2-0.5c0-0.1,0.1-0.2,0.1-0.3v0c0,0,0,0,0-0.1
	c0,0,0,0,0-0.1v0c0.1-0.2,0.2-0.4,0.3-0.6c0.7-1.3,1.8-2.4,3.1-3.1c1.3-0.7,2.8-1.1,4.4-1.1c1.4,0,2.7,0.3,3.8,0.9
	c0.5,0.3,0.9,0.6,1.3,1.1l0.9,1V3.6h4.3v5.8c0.2-0.5,0.7-0.9,1.2-1V3.1z"/>
<path class="st2" d="M166.2,27.7h-3.8l-7.5-18l-0.5-1.1L154,9.8l-7.5,18H142L152.1,5h4.8l9.3,20.8v-3l-8.4-18.6
	c-0.1-0.3-0.4-0.4-0.7-0.4h-5.4c-0.3,0-0.5,0.2-0.7,0.4l-10.5,23.7c-0.1,0.2-0.1,0.5,0,0.7c0.1,0.2,0.4,0.3,0.6,0.3h5.6
	c0.3,0,0.6-0.2,0.7-0.5l6.9-16.6l0.1,0.1l6.9,16.5c0.1,0.3,0.4,0.5,0.7,0.5h4.3c-0.1-0.2-0.2-0.5-0.2-0.7V27.7z"/>
<path class="st2" d="M118,16.9L118,16.9c0,0,0-0.1,0-0.1C118,16.9,118,16.9,118,16.9z"/>
<path class="st2" d="M133.4,10.3c-1.5-0.8-3.3-1.2-5.2-1.2c-2,0-3.8,0.4-5.3,1.3c-0.2,0.1-0.4,0.2-0.6,0.3s-0.4,0.2-0.5,0.4
	c-0.1,0.1-0.3,0.2-0.4,0.3c-0.2,0.2-0.4,0.3-0.5,0.5c-0.2,0.2-0.3,0.3-0.5,0.5c-0.3,0.3-0.6,0.7-0.9,1.1c-0.1,0.1-0.2,0.3-0.3,0.5
	c-0.1,0.2-0.2,0.4-0.3,0.6v0c-0.3,0.6-0.5,1.2-0.7,1.8c0,0.1-0.1,0.3-0.1,0.4c0,0,0,0.1,0,0.1c0,0,0,0.1,0,0.1c0,0,0,0,0,0
	c0,0,0,0.1,0,0.1c0,0.1,0,0.2-0.1,0.4c0,0,0,0.1,0,0.1c0,0.1,0,0.2,0,0.3c0,0.4-0.1,0.8-0.1,1.2c0,0.3,0,0.5,0,0.8
	c0,0.4,0.1,0.7,0.1,1.1c0,0.1,0,0.2,0.1,0.4c0,0,0,0,0,0c0.1,0.3,0.1,0.6,0.2,0.9c0.1,0.2,0.1,0.4,0.2,0.6c0,0,0,0,0,0
	c0.1,0.2,0.2,0.5,0.3,0.7c0.1,0.2,0.2,0.5,0.4,0.7c0,0,0,0.1,0.1,0.1c0,0,0,0,0,0c0.1,0.2,0.3,0.4,0.4,0.6c0.1,0.2,0.3,0.4,0.4,0.5
	c0,0,0,0,0,0c0.2,0.3,0.5,0.5,0.7,0.7c0.2,0.2,0.4,0.3,0.6,0.5c0.2,0.1,0.3,0.3,0.5,0.4c0.1,0.1,0.3,0.2,0.4,0.3
	c0.2,0.1,0.5,0.3,0.7,0.4c1.7,0.9,3.6,1.3,5.8,1.3c1.7,0,3.3-0.3,4.6-0.8c1.4-0.5,2.5-1.3,3.4-2.4c0.2-0.3,0.2-0.7,0-1l-2.8-3
	c-0.1-0.2-0.3-0.2-0.5-0.2c0,0,0,0,0,0c-0.2,0-0.4,0.1-0.5,0.2c-0.5,0.5-1.1,0.9-1.8,1.2c-0.6,0.3-1.4,0.4-2.2,0.4
	c-1,0-1.8-0.2-2.5-0.5c-0.7-0.3-1.2-0.8-1.6-1.4c0,0-0.1-0.1-0.1-0.2l0-0.1h12.7c0.4,0,0.7-0.3,0.7-0.7c0-0.2,0-0.5,0.1-0.7
	c0-0.3,0-0.5,0-0.8c0-2.1-0.5-3.9-1.4-5.4C136.2,12.3,134.9,11.1,133.4,10.3z M137.1,19.8c0,0.1,0,0.2,0,0.3h-13.9l0.1,0.6
	c0.1,0.5,0.3,1,0.6,1.5c0.5,0.8,1.2,1.5,2.1,1.9c0.9,0.4,1.9,0.6,3.1,0.6c1,0,1.9-0.2,2.7-0.5c0.6-0.3,1.2-0.6,1.8-1.1l2.2,2.3
	c-0.7,0.7-1.6,1.3-2.7,1.7c-1.2,0.5-2.6,0.7-4.2,0.7c-2,0-3.7-0.4-5.2-1.2c-1.5-0.8-2.6-1.8-3.4-3.1c0-0.1-0.1-0.1-0.1-0.2
	c-0.3-0.5-0.6-1.1-0.7-1.7c0-0.2-0.1-0.3-0.1-0.5c0,0,0,0,0-0.1c0,0,0,0,0,0c0-0.1-0.1-0.3-0.1-0.4c-0.1-0.5-0.2-1.1-0.2-1.7
	c0-0.5,0-1.1,0.1-1.6c0-0.2,0-0.3,0.1-0.5c0,0,0,0,0,0c0-0.2,0.1-0.3,0.1-0.5c0-0.2,0.1-0.3,0.2-0.5c0.1-0.3,0.2-0.6,0.4-0.9
	c0.1-0.2,0.2-0.4,0.3-0.6c0.8-1.3,1.9-2.4,3.3-3.1c1.4-0.8,3-1.1,4.8-1.1c1.7,0,3.2,0.4,4.6,1.1c1.4,0.7,2.4,1.8,3.2,3.1
	c0.8,1.3,1.2,2.9,1.2,4.8C137.2,19.4,137.2,19.6,137.1,19.8z"/>
<path class="st2" d="M132.6,15.7c-0.4-0.8-1-1.4-1.8-1.8c-0.8-0.4-1.6-0.7-2.6-0.7c-1,0-1.9,0.2-2.6,0.7c-0.8,0.4-1.4,1.1-1.8,1.9
	c-0.3,0.5-0.5,1.1-0.5,1.7l-0.1,0.6h10.1l-0.1-0.6C133.1,16.8,132.9,16.3,132.6,15.7z M124.7,16.8L124.7,16.8
	c0.1-0.2,0.1-0.3,0.2-0.5c0.3-0.6,0.8-1,1.3-1.4c0.6-0.3,1.3-0.5,2-0.5c0.8,0,1.4,0.2,2,0.5c0.6,0.3,1,0.8,1.3,1.4
	c0.1,0.1,0.1,0.3,0.2,0.4l0,0.1H124.7z"/>
<path class="st2" d="M73.2,14.3c-0.8-0.4-1.7-0.7-2.6-0.7c-0.9,0-1.8,0.2-2.6,0.7c-0.8,0.4-1.4,1.1-1.9,1.9c-0.5,0.8-0.7,1.8-0.7,3
	c0,1.1,0.2,2.1,0.7,2.9c0.5,0.8,1.1,1.5,1.9,1.9c0.8,0.4,1.6,0.7,2.6,0.7c1,0,1.8-0.2,2.6-0.7c0.8-0.4,1.4-1.1,1.9-1.9
	c0.5-0.8,0.7-1.8,0.7-2.9c0-1.1-0.2-2.1-0.7-3C74.6,15.4,73.9,14.7,73.2,14.3z M73.9,21.5c-0.4,0.7-0.8,1.1-1.4,1.5
	c-0.6,0.3-1.2,0.5-2,0.5c-0.7,0-1.4-0.2-2-0.5c-0.6-0.3-1-0.8-1.4-1.5c-0.4-0.6-0.5-1.4-0.5-2.3c0-0.9,0.2-1.7,0.5-2.4
	c0.4-0.6,0.8-1.1,1.4-1.4c0.6-0.3,1.2-0.5,2-0.5c0.8,0,1.4,0.2,2,0.5c0.6,0.3,1,0.8,1.4,1.4c0.3,0.6,0.5,1.4,0.5,2.4
	C74.5,20,74.3,20.8,73.9,21.5z"/>
<path class="st2" d="M98.3,28h-4.2V10.8h4.2V10c0-0.2,0-0.3,0.1-0.5h-4.7c0,0-0.1,0-0.1,0c0,0-0.1,0-0.1,0c-0.1,0-0.1,0.1-0.2,0.1
	c0,0-0.1,0-0.1,0.1c0,0,0,0-0.1,0.1c0,0,0,0,0,0C93,10,93,10,93,10.1c0,0.1,0,0.1,0,0.2v18.2c0,0.4,0.3,0.7,0.7,0.7h5
	c-0.2-0.3-0.4-0.6-0.4-1V28z"/>
<path class="st2" d="M118,24v3.7h-4.3v-9.1c0-1.6-0.4-2.8-1.1-3.6c-0.7-0.8-1.8-1.2-3.1-1.2c-0.9,0-1.8,0.2-2.5,0.6
	c-0.8,0.4-1.4,1-1.8,1.8c-0.4,0.8-0.6,1.8-0.6,3v8.5h-4.3V10.5h4v3l0.9-1c0.5-0.5,1.1-1,1.7-1.3c1.1-0.6,2.5-0.9,3.9-0.9
	c1.4,0,2.6,0.3,3.7,0.8c1,0.5,1.9,1.3,2.5,2.4c0.1,0.1,0.2,0.3,0.2,0.4c0.1,0.3,0.3,0.6,0.4,1c0.2-0.5,0.4-1,0.7-1.4
	c0,0,0-0.1,0.1-0.1c-0.1-0.2-0.2-0.3-0.2-0.5c-0.7-1.3-1.7-2.3-3-2.9C114,9.3,112.5,9,111,9c-1.7,0-3.2,0.4-4.5,1.1
	c-0.2,0.1-0.5,0.3-0.7,0.4l-0.1,0.1V10c0-0.4-0.3-0.7-0.7-0.7h-5c-0.1,0-0.1,0-0.2,0c-0.1,0-0.2,0.1-0.3,0.1c0,0-0.1,0-0.1,0.1
	c0,0-0.1,0.1-0.1,0.1c0,0-0.1,0.1-0.1,0.2c0,0.1,0,0.1,0,0.2v18.2c0,0.1,0,0.1,0,0.2c0.1,0.2,0.2,0.3,0.3,0.4c0,0,0.1,0.1,0.2,0.1
	c0.1,0,0.1,0,0.2,0h5.3c0.4,0,0.7-0.3,0.7-0.7v-9c0-1,0.2-1.8,0.5-2.4c0.3-0.6,0.7-1,1.3-1.3c0.6-0.3,1.2-0.5,1.9-0.5
	c1,0,1.7,0.3,2.2,0.8c0.5,0.6,0.8,1.5,0.8,2.8v9.6c0,0.4,0.3,0.7,0.7,0.7h5.3c0.4,0,0.7-0.3,0.7-0.7V26c-0.3-0.4-0.6-0.8-0.8-1.2
	C118.3,24.5,118.2,24.3,118,24z"/>
<g>
	<path class="st2" d="M99.2,2.1c-0.8-0.6-1.7-1-2.9-1c-1.2,0-2.1,0.4-2.9,1c-0.8,0.7-1.1,1.6-1.1,2.6c0,1,0.4,1.9,1.1,2.6
		c0.8,0.7,1.7,1,2.9,1s2.2-0.4,2.9-1.1s1.1-1.6,1.1-2.7C100.3,3.7,99.9,2.8,99.2,2.1z"/>
</g>
<path class="st2" d="M87.2,10.6L87.2,10.6L87.2,10c0-0.4-0.3-0.7-0.7-0.7h-5c-0.1,0-0.2,0-0.3,0c0,0,0,0,0,0c-0.1,0-0.1,0.1-0.2,0.1
	c0,0-0.1,0.1-0.1,0.2c0,0-0.1,0.1-0.1,0.2c0,0,0,0.1,0,0.1c0,0,0,0.1,0,0.1v18.2c0,0.1,0,0.2,0,0.2c0,0.1,0.1,0.2,0.2,0.3
	c0.1,0.1,0.3,0.2,0.5,0.2h5.3c0.4,0,0.7-0.3,0.7-0.7v-8.6c0-1.5,0.4-2.6,1.1-3.3c0.7-0.7,1.7-1,3-1c0.1,0,0.3,0,0.5,0c0,0,0,0,0,0
	v-1.2c-0.2,0-0.3,0-0.5,0c-1.6,0-2.9,0.5-3.9,1.4c-1,0.9-1.5,2.4-1.5,4.2v8.1h-4.3V10.5h4V14l0.9-1.2c0.5-0.6,1-1.1,1.7-1.5
	c1-0.5,2.1-0.9,3.5-0.9c0-0.1,0-0.2,0-0.2c0-0.1,0-0.2,0.1-0.2c0.1-0.3,0.3-0.6,0.5-0.8c-1.8,0-3.4,0.4-4.7,1.1
	C87.7,10.3,87.5,10.4,87.2,10.6z"/>
<path class="st2" d="M40.3,10c0-0.3,0.1-0.6,0.2-0.8h-4.9c-0.4,0-0.7,0.3-0.7,0.7v0.4l-0.1,0c-0.1-0.1-0.2-0.1-0.2-0.2
	C33.3,9.4,31.9,9,30.2,9c-1.8,0-3.5,0.4-5,1.3c-1.5,0.8-2.7,2-3.5,3.5c-0.4,0.7-0.7,1.4-0.9,2.2c-0.1,0.3-0.2,0.7-0.2,1.1
	c-0.1,0.6-0.2,1.3-0.2,2v0c0,1,0.1,2,0.3,2.9v0c0.2,0.7,0.4,1.4,0.7,2c0.1,0.1,0.1,0.3,0.2,0.4c0.1,0.2,0.2,0.4,0.3,0.5c0,0,0,0,0,0
	c0.8,1.2,1.9,2.2,3.2,3c1.5,0.8,3.2,1.3,5,1.3c1.7,0,3.2-0.4,4.5-1.1c0.1-0.1,0.3-0.2,0.4-0.2l0.1-0.1v0.4c0,0.4,0.3,0.7,0.7,0.7
	h4.6c-0.1-0.2-0.2-0.5-0.2-0.7v-0.5h-3.9v-3l-0.9,1.1c-0.4,0.5-0.9,0.9-1.4,1.2c-1,0.6-2.3,0.9-3.9,0.9c-1.6,0-3.1-0.4-4.4-1.1
	c-1.3-0.7-2.3-1.8-3.1-3.1c-0.1-0.1-0.1-0.2-0.2-0.3c-0.3-0.5-0.5-1-0.6-1.6c-0.2-0.8-0.3-1.8-0.3-2.8c0-0.1,0-0.2,0-0.2
	c0-0.6,0-1.1,0.1-1.7c0.2-1,0.5-2,1-2.8c0.7-1.3,1.8-2.4,3.1-3.1c1.3-0.7,2.8-1.1,4.4-1.1c1.4,0,2.7,0.3,3.8,0.9
	c0.5,0.3,0.9,0.6,1.3,1.1l0.9,0.9v-2.8h4.2V10z"/>
<path class="st2" d="M212.4,2.4h-5.3c-0.4,0-0.7,0.3-0.7,0.7v7.2l-0.1,0c-0.1-0.1-0.1-0.1-0.2-0.2c-1.3-0.7-2.7-1.1-4.4-1.1
	c-1.8,0-3.5,0.4-5,1.3c-0.2,0.1-0.5,0.3-0.7,0.4c-0.3,0.2-0.5,0.4-0.8,0.6c-0.1,0.1-0.2,0.2-0.4,0.3c-0.1,0.1-0.2,0.2-0.3,0.3
	c-0.1,0.1-0.2,0.2-0.3,0.4c-0.2,0.2-0.4,0.5-0.6,0.8c-0.1,0.1-0.2,0.3-0.3,0.5c-0.1,0.1-0.1,0.2-0.2,0.3c-0.2,0.3-0.3,0.6-0.4,0.9
	c-0.1,0.2-0.1,0.3-0.2,0.5c0,0,0,0,0,0c-0.1,0.2-0.2,0.4-0.2,0.6c-0.1,0.3-0.2,0.6-0.2,0.9c0,0.1-0.1,0.3-0.1,0.4
	c-0.1,0.6-0.2,1.3-0.2,2s0.1,1.4,0.2,2c0,0.1,0,0.3,0.1,0.4c0,0.3,0.1,0.6,0.2,0.9c0.1,0.2,0.1,0.4,0.2,0.6c0,0,0,0,0,0
	c0.1,0.2,0.1,0.3,0.2,0.5c0.1,0.3,0.3,0.6,0.4,0.9c0.1,0.1,0.1,0.2,0.2,0.3c0.1,0.2,0.2,0.3,0.3,0.5c0.2,0.3,0.4,0.5,0.6,0.8
	c0.1,0.1,0.2,0.3,0.3,0.4c0.1,0.1,0.2,0.2,0.3,0.3c0.1,0.1,0.2,0.2,0.4,0.3c0.2,0.2,0.5,0.4,0.8,0.6c0.2,0.1,0.4,0.3,0.7,0.4
	c1.5,0.8,3.2,1.3,5,1.3c1.7,0,3.2-0.4,4.5-1.1c0.2-0.1,0.3-0.2,0.4-0.2l0.1-0.1v0.4c0,0.4,0.3,0.7,0.7,0.7h5c0.4,0,0.7-0.3,0.7-0.7
	V3.1C213.2,2.7,212.8,2.4,212.4,2.4z M211.9,27.7h-4v-3l-0.9,1.1c-0.4,0.5-0.9,0.9-1.4,1.2c-1,0.6-2.3,0.9-3.8,0.9
	c-1.6,0-3.1-0.4-4.4-1.1c-1.3-0.7-2.3-1.8-3.1-3.1c0,0,0,0,0,0c-0.1-0.2-0.2-0.4-0.3-0.5c-0.1-0.2-0.2-0.4-0.2-0.6
	c-0.1-0.2-0.1-0.4-0.2-0.6s-0.1-0.4-0.2-0.6c0-0.2-0.1-0.4-0.1-0.7c0-0.2,0-0.3-0.1-0.4c0-0.2,0-0.3,0-0.5c0-0.2,0-0.4,0-0.7
	c0-0.2,0-0.5,0-0.7c0-0.2,0-0.3,0-0.5c0-0.2,0-0.3,0.1-0.4c0-0.2,0.1-0.5,0.1-0.7c0-0.2,0.1-0.4,0.2-0.6c0.1-0.2,0.1-0.4,0.2-0.6
	c0.1-0.2,0.2-0.4,0.2-0.6c0.1-0.2,0.2-0.4,0.3-0.6c0,0,0,0,0,0c0.7-1.3,1.8-2.4,3.1-3.1c1.3-0.7,2.8-1.1,4.4-1.1
	c1.4,0,2.7,0.3,3.8,0.9c0.5,0.3,0.9,0.6,1.3,1.1l0.9,1V3.6h4.3V27.7z"/>
<path class="st2" d="M20.3,23.6c-0.1,0.2-0.2,0.3-0.2,0.5c-0.1,0.2-0.2,0.4-0.3,0.5c-0.7,1-1.7,1.9-3.1,2.5c-1.4,0.7-3.2,1-5.4,1
	c-1.8,0-3.6-0.2-5.3-0.7c-1.5-0.4-2.8-1-3.7-1.7l1.4-3.2c0.9,0.6,2,1.1,3.2,1.5c1.4,0.5,2.9,0.7,4.4,0.7c1.2,0,2.1-0.1,2.8-0.4
	c0.8-0.2,1.3-0.6,1.7-1c0.4-0.5,0.6-1,0.6-1.6c0-0.8-0.3-1.4-0.9-1.9c-0.5-0.4-1.3-0.7-2.1-1c-0.8-0.2-1.7-0.5-2.7-0.7
	c-1-0.2-1.9-0.5-2.9-0.8c-0.9-0.3-1.8-0.7-2.6-1.2c-0.8-0.5-1.3-1.1-1.8-1.8c-0.4-0.7-0.7-1.7-0.7-2.8c0-1.2,0.3-2.4,1-3.4
	c0.7-1,1.7-1.9,3.1-2.5c1.4-0.6,3.2-1,5.4-1c1.4,0,2.9,0.2,4.3,0.5c1.2,0.3,2.3,0.7,3.3,1.3l-1.4,3.2c-0.9-0.5-1.9-0.9-2.9-1.1
	C14.2,8.2,13.1,8,12,8C10.9,8,10,8.2,9.3,8.4C8.5,8.7,7.9,9.1,7.6,9.6C7.2,10,7,10.6,7,11.2C7,12,7.3,12.6,8,13.1
	c0.5,0.4,1.3,0.8,2.1,1c0.8,0.2,1.7,0.4,2.7,0.6c1,0.2,1.9,0.5,2.9,0.8c0.9,0.3,1.8,0.7,2.6,1.2c0.1,0.1,0.3,0.2,0.4,0.3
	c0.1,0,0.1,0.1,0.2,0.2c0.2,0.2,0.5,0.4,0.7,0.7c0-0.5,0.1-1,0.2-1.5c-0.3-0.3-0.6-0.5-0.9-0.7c-0.8-0.5-1.8-0.9-2.8-1.3
	c-1-0.3-2-0.6-3-0.8c-1-0.2-1.9-0.4-2.7-0.6c-0.7-0.2-1.3-0.5-1.7-0.8c-0.3-0.2-0.5-0.5-0.5-0.9c0-0.3,0.1-0.6,0.3-0.9
	C8.8,10,9.2,9.8,9.7,9.6C10.2,9.4,11,9.3,12,9.3c1,0,2,0.1,3.1,0.4c1.1,0.3,2.1,0.7,3.1,1.3c0.2,0.1,0.4,0.1,0.6,0.1
	c0.2-0.1,0.4-0.2,0.4-0.4L21,6.5c0.1-0.3,0-0.7-0.3-0.9c-1.1-0.7-2.5-1.3-4-1.6c-1.5-0.4-3-0.6-4.6-0.6c-2.3,0-4.3,0.4-5.9,1.1
	C4.6,5.2,3.4,6.2,2.6,7.4C1.8,8.6,1.4,10,1.4,11.5c0,1.4,0.3,2.5,0.8,3.5c0.5,0.9,1.3,1.7,2.2,2.2c0.9,0.5,1.8,1,2.9,1.3
	c1,0.3,2,0.6,3,0.8c1,0.2,1.8,0.4,2.6,0.7c0.7,0.2,1.3,0.5,1.7,0.8c0.3,0.2,0.5,0.5,0.5,0.9c0,0.3-0.1,0.6-0.3,0.8
	c-0.2,0.3-0.6,0.5-1.2,0.7c-0.6,0.2-1.4,0.3-2.4,0.3c-1.3,0-2.7-0.2-4-0.7c-1.3-0.4-2.5-1-3.4-1.7C3.8,21.1,3.6,21,3.5,21
	c-0.1,0-0.1,0-0.2,0c-0.2,0.1-0.4,0.2-0.5,0.4l-1.9,4.1c-0.1,0.3,0,0.7,0.2,0.9c1.1,0.9,2.6,1.6,4.5,2.1c1.8,0.5,3.7,0.8,5.7,0.8
	c2.3,0,4.3-0.4,5.9-1.1c1.6-0.7,2.8-1.7,3.6-2.9c0.1-0.1,0.2-0.2,0.2-0.3c0-0.1-0.1-0.1-0.1-0.2C20.7,24.5,20.5,24,20.3,23.6z"/>
<path class="st2" d="M205.2,14.3c-0.8-0.4-1.7-0.7-2.6-0.7c-0.9,0-1.8,0.2-2.6,0.7c-0.8,0.4-1.4,1.1-1.9,1.9c-0.5,0.8-0.7,1.8-0.7,3
	c0,1.1,0.2,2.1,0.7,2.9c0.5,0.8,1.1,1.5,1.9,1.9c0.8,0.4,1.6,0.7,2.6,0.7c1,0,1.8-0.2,2.6-0.7c0.8-0.4,1.4-1.1,1.9-1.9
	c0.5-0.8,0.7-1.8,0.7-2.9c0-1.1-0.2-2.1-0.7-3S206,14.7,205.2,14.3z M206,21.5c-0.4,0.7-0.8,1.1-1.4,1.5c-0.6,0.3-1.2,0.5-2,0.5
	c-0.7,0-1.4-0.2-2-0.5c-0.6-0.3-1-0.8-1.4-1.5c-0.4-0.6-0.5-1.4-0.5-2.3c0-0.9,0.2-1.7,0.5-2.4c0.4-0.6,0.8-1.1,1.4-1.4
	c0.6-0.3,1.2-0.5,2-0.5c0.8,0,1.4,0.2,2,0.5c0.6,0.3,1.1,0.8,1.4,1.4s0.5,1.4,0.5,2.4C206.5,20,206.3,20.8,206,21.5z"/>
<path class="st2" d="M185.8,27.7h-4.2v-9.1c0-1.6-0.4-2.8-1.1-3.6c-0.7-0.8-1.8-1.2-3.1-1.2c-0.9,0-1.8,0.2-2.5,0.6
	c-0.8,0.4-1.3,1-1.8,1.8c-0.4,0.8-0.6,1.8-0.6,3v8.5h-4.2h-0.1v-0.1V10.5h4v3l0.9-1c0.5-0.5,1.1-1,1.7-1.3c1.1-0.6,2.5-0.9,3.9-0.9
	c1.4,0,2.6,0.3,3.6,0.8c1,0.5,1.9,1.3,2.5,2.4c0.2,0.4,0.4,0.9,0.6,1.5c0,0.1,0.1,0.3,0.1,0.4c0,0.2,0.1,0.5,0.1,0.7v-3.7
	c-0.7-1.1-1.6-1.9-2.7-2.5c-1.2-0.6-2.6-0.9-4.2-0.9c-1.7,0-3.2,0.4-4.5,1.1c-0.2,0.1-0.5,0.3-0.7,0.4l-0.1,0.1V10
	c0-0.4-0.3-0.7-0.7-0.7h-5c-0.4,0-0.7,0.3-0.7,0.7v18.2c0,0.4,0.3,0.7,0.7,0.7h5.3c0.4,0,0.7-0.3,0.7-0.7v-9c0-1,0.2-1.8,0.5-2.4
	c0.3-0.6,0.7-1,1.3-1.3c0.5-0.3,1.2-0.5,1.9-0.5c1,0,1.7,0.3,2.2,0.8c0.5,0.6,0.8,1.5,0.8,2.8v9.6c0,0.4,0.3,0.7,0.7,0.7h4.8
	c-0.1-0.2-0.2-0.5-0.2-0.7V27.7z"/>
<path class="st2" d="M33.7,14.3c-0.8-0.4-1.7-0.7-2.6-0.7c-0.9,0-1.8,0.2-2.6,0.7c-0.8,0.4-1.4,1.1-1.9,1.9C26.2,17,26,18,26,19.1
	c0,1.1,0.2,2.1,0.7,2.9c0.5,0.8,1.1,1.5,1.9,1.9s1.6,0.7,2.6,0.7c1,0,1.8-0.2,2.6-0.7c0.8-0.4,1.4-1.1,1.9-1.9
	c0.5-0.8,0.7-1.8,0.7-2.9c0-1.1-0.2-2.1-0.7-3S34.5,14.7,33.7,14.3z M34.5,21.5c-0.3,0.7-0.8,1.1-1.4,1.5c-0.6,0.3-1.3,0.5-2,0.5
	c-0.7,0-1.4-0.2-2-0.5c-0.6-0.3-1-0.8-1.4-1.5c-0.4-0.6-0.5-1.4-0.5-2.3c0-0.9,0.2-1.7,0.5-2.4c0.4-0.6,0.8-1.1,1.4-1.4
	c0.6-0.3,1.2-0.5,2-0.5c0.8,0,1.4,0.2,2,0.5c0.6,0.3,1.1,0.8,1.4,1.4s0.5,1.4,0.5,2.4C35,20,34.8,20.8,34.5,21.5z"/>
<path class="st2" d="M192.9,7.2c0.8-0.7,1.1-1.6,1.1-2.7c0-1.1-0.4-1.9-1.2-2.6c-0.8-0.6-1.7-1-2.9-1c-1.2,0-2.2,0.3-2.9,1
	c-0.8,0.7-1.1,1.6-1.1,2.6s0.4,1.9,1.1,2.6c0.7,0.7,1.7,1,2.9,1C191.2,8.2,192.2,7.9,192.9,7.2z"/>
<path class="st2" d="M192.1,24.3v3.4h-4.3V10.5h4.3V14c0.1-0.2,0.2-0.4,0.3-0.6c0.3-0.5,0.6-1,1-1.4v-2c0-0.4-0.3-0.7-0.7-0.7h-5.3
	c-0.4,0-0.7,0.3-0.7,0.7v18.2c0,0.1,0,0.1,0,0.2c0,0,0,0.1,0.1,0.2c0,0,0,0.1,0.1,0.1c0,0,0.1,0.1,0.1,0.1c0.1,0.1,0.3,0.2,0.5,0.2
	h5.3c0.4,0,0.7-0.3,0.7-0.7v-2c-0.3-0.4-0.7-0.9-1-1.4C192.3,24.7,192.2,24.5,192.1,24.3z"/>
<path d="M98.4,6.5c-0.5,0.5-1.2,0.7-2.1,0.7S94.8,7,94.2,6.5c-0.5-0.5-0.8-1-0.8-1.7c0-0.7,0.2-1.3,0.8-1.7c0.5-0.5,1.2-0.7,2.1-0.7
	c0.9,0,1.5,0.2,2.1,0.7c0.5,0.4,0.8,1,0.8,1.7C99.1,5.5,98.9,6.1,98.4,6.5z"/>
<path d="M187.2,4.5c0-0.7,0.2-1.3,0.8-1.7c0.5-0.5,1.2-0.7,2.1-0.7s1.5,0.2,2.1,0.7c0.5,0.4,0.8,1,0.8,1.7c0,0.7-0.2,1.3-0.8,1.8
	C191.6,6.8,190.9,7,190,7s-1.5-0.2-2.1-0.7C187.4,5.8,187.2,5.2,187.2,4.5z"/>
</svg>
