<?xml version="1.0" encoding="utf-8"?>
<!-- Generator: Adobe Illustrator 24.0.0, SVG Export Plug-In . SVG Version: 6.00 Build 0)  -->
<svg version="1.1" xmlns="http://www.w3.org/2000/svg" xmlns:xlink="http://www.w3.org/1999/xlink" x="0px" y="0px"
	 viewBox="0 0 70.2 76.8" style="enable-background:new 0 0 70.2 76.8;" xml:space="preserve">
<style type="text/css">
	.st0{fill:#FFFFFF;}
</style>
<g id="Layer_4">
	<g>
		<path class="st0" d="M65.1,21.9c5.3,14.3-2.6,29.2-13,35.1c-3.2,1.8-6.5,3.2-10.2,3.5c-1.3,0-2.2,0.6-3.2,1.5
			c-5,4.9-10.3,9.7-16,13.9c-0.7,0.6-1.4,1.5-2.4,0.9c-1.2-0.5-0.7-1.7-0.7-2.5c0-5,0-9.9,0-14.9c0-0.9-0.3-1.7-1.2-2.2
			c-4.6-2.5-8.2-6.1-11-10.6c-9.9-16.6-2-34.3,11.8-42.2c10.7-6.1,21.4-5.4,31.9,0.9C57.6,9.1,62.3,14.7,65.1,21.9z"/>
		<path class="st0" d="M19.1,11.7c0.4-0.6,0.9-1.2,1.3-1.7c-0.1-0.1-0.3-0.2-0.4-0.3c-0.8,0.3-1.3,0.9-1.3,1.8
			C18.9,11.7,19,11.7,19.1,11.7z"/>
	</g>
</g>
<g id="Layer_1">
	<g>
		<path d="M65.1,21.9c5.3,14.3-2.6,29.2-13,35.1c-3.2,1.8-6.5,3.2-10.2,3.5c-1.3,0-2.2,0.6-3.2,1.5c-5,4.9-10.3,9.7-16,13.9
			c-0.7,0.6-1.4,1.5-2.4,0.9c-1.2-0.5-0.7-1.7-0.7-2.5c0-5,0-9.9,0-14.9c0-0.9-0.3-1.7-1.2-2.2c-4.6-2.5-8.2-6.1-11-10.6
			c-9.9-16.6-2-34.3,11.8-42.2c10.7-6.1,21.4-5.4,31.9,0.9C57.6,9.1,62.3,14.7,65.1,21.9z M22.1,72.7c0.7-0.7,1.2-1.1,1.7-1.5
			c4.2-3.9,8.5-7.7,12.6-11.6c1.4-1.2,2.9-2.1,4.7-2.2c6.5-0.5,11.6-3.7,15.9-8.5c8.5-9.5,8.4-24.9,0-35.2
			C46.3,0.9,26.8-0.1,14.6,11.4c-10.8,10.2-10.4,25-4.2,34.4c2.8,4.1,6.6,7.1,10.7,9.7c0.9,0.6,1.3,1.3,1.3,2.4
			c-0.1,1.8,0,3.7-0.1,5.7C22.3,66.5,22.2,69.5,22.1,72.7z"/>
		<path d="M58.6,38.8c-1.5,5-4.6,9.1-8,13.1c2.8-0.3,7.1-5.6,9.2-11.1c2.2-5.8,3-11.5,0-17.2C59.8,28.6,60.1,33.8,58.6,38.8z"/>
		<path d="M9,35.5c0.1-1.4,0.3-2.5,0.4-3.7c0.4-4.6,1.3-9.1,4.2-12.9c1-1.5,2.2-3,3.2-4.6c0.4-0.6,0.7-1.2,1.2-2
			C11.7,14,5.9,29.1,9,35.5z"/>
		<path d="M19.1,11.7c0.4-0.6,0.9-1.2,1.3-1.7c-0.1-0.1-0.3-0.2-0.4-0.3c-0.8,0.3-1.3,0.9-1.3,1.8C18.9,11.7,19,11.7,19.1,11.7z"/>
	</g>
</g>
<g id="Layer_3">
	<path d="M29.5,21.2c-3.2-1.5-6.1-0.4-7.6,2.8c-1.3,2.6-1,5.3,0.1,7.8c1.2,2.7,2.8,5.1,4.8,7.2c2,2.2,4.1,4.2,6.9,5.4
		c0.8,0.4,1.5,0.2,2.2-0.3c4.3-3,7.8-6.8,10.6-11.2c0.8-1.5,1.5-3.1,1.9-4.7c0.7-2.8-0.4-5.2-2.7-6.9s-4.8-1.9-7.4-0.6
		c-1.9,0.8-3.3,2.3-4.3,4.2C32.7,23.1,31.3,22,29.5,21.2z"/>
</g>
<g id="Layer_2">
	<path d="M70,31.6c0.1-1.6,0.3-3.1,0.1-4.7c-0.6-6-3.2-11.2-6.6-16c-2.2-3-4.8-5.5-8.3-6.9c-0.6-0.2-1.3-0.3-1.9-0.5
		C64,10,68.6,19.8,69.4,31.8C69.6,31.8,69.8,31.7,70,31.6z"/>
	<path d="M9.2,52.6C2.5,45.7,0.6,37.2,0.9,28c-0.4,0.7-0.6,1.3-0.7,2c-0.7,4.4,0.4,8.6,1.7,12.7c0.9,2.7,1.9,5.3,3.8,7.4
		c0.9,1,2,1.9,3.1,2.8C8.9,52.8,9.1,52.6,9.2,52.6z"/>
</g>
</svg>
