<?xml version="1.0" encoding="utf-8"?>
<!-- Generator: Adobe Illustrator 24.0.0, SVG Export Plug-In . SVG Version: 6.00 Build 0)  -->
<svg version="1.1" id="Layer_1" xmlns="http://www.w3.org/2000/svg" xmlns:xlink="http://www.w3.org/1999/xlink" x="0px" y="0px"
	 viewBox="0 0 90.2 110.7" style="enable-background:new 0 0 90.2 110.7;" xml:space="preserve">
<style type="text/css">
	.st0{opacity:0.5;fill:#FFFFFF;}
	.st1{fill:#FFFFFF;}
</style>
<polygon class="st0" points="0,19.4 90.2,61.9 90.2,91.3 0,48.7 "/>
<g>
	<path d="M85.4,17.7l-36.7-17C47.6,0.3,46.4,0,45.2,0c-1.1,0-2.3,0.2-3.4,0.7L0,19.4v29.4l45.1-21.4l45.1,21.4V25.3
		C90.2,22,88.3,19.1,85.4,17.7z M87.5,44.4L46.3,24.9c-0.4-0.2-0.8-0.3-1.2-0.3s-0.8,0.1-1.2,0.3L2.7,44.4V21.1L42.9,3.2
		c0.7-0.3,1.5-0.5,2.3-0.5c0.8,0,1.6,0.2,2.3,0.5l36.7,17c2,0.9,3.2,2.9,3.2,5.1V44.4z"/>
	<path class="st1" d="M87.5,25.3v19.1L46.3,24.9c-0.4-0.2-0.8-0.3-1.2-0.3s-0.8,0.1-1.2,0.3L2.7,44.4V21.1L42.9,3.2
		c0.7-0.3,1.5-0.5,2.3-0.5c0.8,0,1.6,0.2,2.3,0.5l36.7,17C86.2,21.1,87.5,23.1,87.5,25.3z"/>
</g>
<g>
	<path d="M45.1,83.3L0,61.9v23.4c0,3.2,1.9,6.2,4.8,7.5l36.7,17c1.1,0.5,2.3,0.8,3.5,0.8c1.2,0,2.3-0.2,3.4-0.7l41.8-18.6V61.9
		L45.1,83.3z M87.5,89.5l-40.2,17.9c-0.7,0.3-1.5,0.5-2.3,0.5c-0.8,0-1.6-0.2-2.3-0.5L6,90.5c-2-0.9-3.2-2.9-3.2-5.1V66.2l41.2,19.6
		c0.4,0.2,0.8,0.3,1.2,0.3s0.8-0.1,1.2-0.3l41.2-19.6V89.5z"/>
	<path class="st1" d="M87.5,66.2v23.3l-40.2,17.9c-0.7,0.3-1.5,0.5-2.3,0.5c-0.8,0-1.6-0.2-2.3-0.5L6,90.5c-2-0.9-3.2-2.9-3.2-5.1
		V66.2l41.2,19.6c0.4,0.2,0.8,0.3,1.2,0.3s0.8-0.1,1.2-0.3L87.5,66.2z"/>
</g>
</svg>
