<?xml version="1.0" encoding="utf-8"?>
<!-- Generator: Adobe Illustrator 24.0.0, SVG Export Plug-In . SVG Version: 6.00 Build 0)  -->
<svg version="1.1" id="Layer_1" xmlns="http://www.w3.org/2000/svg" xmlns:xlink="http://www.w3.org/1999/xlink" x="0px" y="0px"
	 width="512px" height="509.7px" viewBox="0 0 512 509.7" style="enable-background:new 0 0 512 509.7;" xml:space="preserve">
<style type="text/css">
	.st0{fill:none;}
	.st1{fill:#F0F0F0;}
</style>
<g>
	<path class="st1" d="M297.8,366.1c3-0.4,5.7-0.8,8.3-1.2c12-1.7,23.8-4.1,35.1-8.5c28.2-10.9,47-30.6,55.2-59.9
		c5.2-18.2,6.8-36.9,4.7-55.7c-1.9-17.2-8.7-32.6-20-45.8c-2-2.3-2.5-4.2-1.5-7.2c3.2-9.3,3.9-18.9,3.1-28.6
		c-0.7-9-2.7-17.8-5.9-26.3c-0.5-1.4-1.3-2-2.8-2.1c-7.6-0.6-14.8,1.1-21.9,3.5c-13,4.4-24.9,11.1-36.2,18.7
		c-1.8,1.2-3.3,1.5-5.4,0.9c-26.2-6.8-52.8-8.8-79.6-5.4c-10.1,1.3-20.2,3.6-30.2,5.6c-1.6,0.3-2.7,0-4-0.8
		c-7.8-4.5-15.4-9.3-23.4-13.4c-8-4.2-16.6-7.3-25.7-8.7c-3.4-0.5-6.9-0.4-10.3-0.3c-0.7,0-1.7,0.8-2,1.4c-5.2,13.9-7.8,28.2-5.7,43
		c0.7,5,2.1,9.9,3.4,14.8c0.3,1.2,0.2,1.9-0.6,2.8c-7.6,8.7-13.5,18.4-17.3,29.3c-4,11.4-5.3,23.1-5.1,35.1
		c0.3,13.4,1.8,26.7,5.6,39.6c7.3,24.8,22,43.5,45.4,55.1c12.3,6.1,25.4,9.8,38.9,12.1c4.2,0.7,8.5,1.3,12.8,1.9
		c0.3,0,0.6,0.2,1,0.3c-0.3,0.5-0.5,0.8-0.7,1c-6.4,6.4-9.9,14.3-12.1,22.9c-0.2,0.9-0.6,1.9-0.6,2.9c0,3-1.5,4.4-4.2,5.4
		c-9.1,3.2-18.3,5.1-28,4.1c-11-1.2-20.2-6.1-27.5-14.3c-2.9-3.3-5.4-7-7.8-10.8c-5.4-8.4-12.2-15.3-21.3-19.6
		c-6.2-2.9-12.7-4.6-19.6-2.9c-0.8,0.2-1.6,0.5-2.4,0.8c-2.1,1.1-2.8,3.2-1.1,5c2.3,2.6,4.9,5.2,7.8,7c7,4.3,12.6,10,16.8,16.9
		c3.2,5.1,6.1,10.5,8.4,16.1c5,12.1,13.7,20.2,25.3,25.3c10.8,4.8,22.2,5.9,33.8,5c5.5-0.4,10.9-1.3,16.3-2.2c1.7-0.3,2.2,0,2.2,1.7
		c0,13.4,0,26.8,0.2,40.2c0.1,7.9-5.6,13-13.7,11.7c-4.1-0.7-8-2.3-11.9-3.8c-26.2-10.1-49.8-24.5-70.7-43.3
		c-18.9-17-34.5-36.6-47-58.7c-5.8-10.3-10.6-20.9-14.7-31.9c-7.2-19.4-11.7-39.5-13.4-60.2c-1.4-16.1-1.1-32.2,0.9-48.3
		c3.2-25.1,10.3-49,21.4-71.7c10.7-21.9,24.5-41.5,41.5-59c23-23.6,49.8-41.6,80.5-53.7c13.9-5.5,28.3-9.7,43-12.3
		c24-4.2,48.1-4.9,72.4-1.5c29.4,4.1,56.9,13.5,82.6,28.3c29,16.7,53.2,38.7,72.6,66c13.4,18.8,23.7,39.1,30.9,61
		c8.6,26.3,12.2,53.2,11.2,80.8c-0.8,20.7-4.4,40.8-10.6,60.5c-8.8,27.7-22.4,52.8-40.9,75.2c-25.8,31.2-57.5,54.3-95.4,68.9
		c-3.5,1.4-7.1,2.7-10.8,3.4c-8.8,1.6-14.4-3.4-14.4-12.3c0.1-20.1,0.3-40.2,0.2-60.3c0-6.3-0.5-12.7-1.8-18.9
		c-1.8-8.9-5.7-17.1-12.3-23.6C298.5,367,298.2,366.7,297.8,366.1z"/>
</g>
</svg>
